# xmcd
#
# Track frame offsets: 
#        150
#        15335
#        29328
#        51125
#        72752
#        89537
#        106928
#        126745
#        142477
#        161447
#        176315
#
# Disc length: 2604 seconds
#
# Revision: 0
# Processed by: cddbd v1.5.2PL0 Copyright (c) Steve Scherf et al.
# Submitted via: ExactAudioCopyFreeDBPlugin 1.0
#
DISCID=950a2a0b
DTITLE=茄子蛋 - 我們以後要結婚
DYEAR=2019
DGENRE=Country
TTITLE0=阿明與我
TTITLE1=聞道有先後，術業有專攻
TTITLE2=這款自作多情
TTITLE3=Happy!!!運將情歌
TTITLE4=窒息
TTITLE5=請問你敢欲做我的Girlfriend
TTITLE6=孤獨的人我們一起出發
TTITLE7=現代的男女你如何看待
TTITLE8=用愛賺錢
TTITLE9=Outro 2nd
TTITLE10=浪流連
EXTD=
EXTT0=
EXTT1=
EXTT2=
EXTT3=
EXTT4=
EXTT5=
EXTT6=
EXTT7=
EXTT8=
EXTT9=
EXTT10=
PLAYORDER=
